# xmcd
#
# Track frame offsets:
#	150
#	2735
#	16459
#	29133
#	40843
#	54828
#	67146
#	79644
#	92898
#	103369
#	115672
#	128963
#	142270
#	156872
#	170636
#	183135
#	195271
#	208078
#	218734
#	231685
#	242624
#	252254
#	262463
#	273104
#
# Disc length: 3803 seconds
#
# Revision: 1
# Processed by: cddbd v1.5.2PL0 Copyright (c) Steve Scherf et al.
# Submitted via: audiograbber 1.83.01
#
DISCID=660ed918
DTITLE=Various Artist - TL Sound Volume 3
DYEAR=1900
DGENRE=
TTITLE0=TL - Intro
TTITLE1=TL - TL Sleepwalk
TTITLE2=Ronnie and The Daytonas - Sandy
TTITLE3=Explosions - Like Your Love
TTITLE4=Four Havens - What Time Is It
TTITLE5=Anothony and The Imperials - If I Remember To Forget
TTITLE6=Chantels - Eternally
TTITLE7=Honey and The Bees - (You Better) Go Now
TTITLE8=Jive Five - Kiss Kiss Kiss
TTITLE9=Incredibles - I'll Make It Easy
TTITLE10=Timothy Wilson - Baby Baby Please
TTITLE11=Henry Lumpkin - If I Could Make Magic
TTITLE12=Emanons - One Heart
TTITLE13=Chuck Corby and The Entrees - Honey Let Me Stay
TTITLE14=Symphonics - All Roads Lead To Heartbreak
TTITLE15=Ricky Lyons - Have No Fear
TTITLE16=Karen Small - Boys Are Made To Love
TTITLE17=Swans - Please Hurry Home
TTITLE18=Strangers - Darlin
TTITLE19=Elgins - Here In Your Arms
TTITLE20=Fascinators - Who Do You Think You Are
TTITLE21=Bobby Vee - Where Is She
TTITLE22=Ben Iverson and The Hornets - Love Me
TTITLE23=Ray Peterson - Goodnight My Love
EXTD=
EXTT0=
EXTT1=
EXTT2=
EXTT3=
EXTT4=
EXTT5=
EXTT6=
EXTT7=
EXTT8=
EXTT9=
EXTT10=
EXTT11=
EXTT12=
EXTT13=
EXTT14=
EXTT15=
EXTT16=
EXTT17=
EXTT18=
EXTT19=
EXTT20=
EXTT21=
EXTT22=
EXTT23=
PLAYORDER=
